<svg width="256" height="256" viewBox="0 0 256 256" fill="none" xmlns="http://www.w3.org/2000/svg">
<rect width="256" height="256" rx="51.2" fill="black"/>
<path d="M184.772 163.52L134.338 57.4616C134.129 57.0237 133.8 56.6539 133.389 56.3952C132.979 56.1366 132.503 55.9995 132.018 56H75.3323C74.6531 55.9996 74.0014 56.2686 73.5203 56.7481C73.0391 57.2276 72.7679 57.8783 72.7659 58.5576L72.7379 89.2776C72.7379 89.9584 73.0043 90.6088 73.4899 91.0896C73.9699 91.5712 74.6211 91.84 75.3035 91.84H108.917L159.587 197.901C159.795 198.338 160.123 198.707 160.533 198.966C160.942 199.224 161.417 199.361 161.901 199.36H197.668C198.005 199.36 198.338 199.295 198.649 199.166C198.96 199.038 199.243 198.849 199.481 198.611C199.72 198.374 199.909 198.091 200.038 197.781C200.167 197.47 200.234 197.137 200.234 196.8L184.772 163.52Z" fill="white"/>
<path d="M93.1325 125.736C93.5408 125.991 93.8693 126.356 94.0809 126.788L112.869 165.475C113.037 165.819 113.125 166.196 113.128 166.579C113.13 166.961 113.046 167.339 112.882 167.685L98.3617 197.949C98.1529 198.387 97.8242 198.758 97.4136 199.017C97.0029 199.276 96.5272 199.413 96.0417 199.413L58.5633 199.414C58.1306 199.414 57.7049 199.304 57.326 199.096C56.947 198.887 56.6271 198.586 56.396 198.22C56.1649 197.854 56.0303 197.436 56.0045 197.004C55.9788 196.572 56.0629 196.14 56.2489 195.75L89.4545 126.8C89.6628 126.364 89.9901 125.996 90.3986 125.739C90.8072 125.481 91.2883 125.344 91.7713 125.344C92.2527 125.345 92.7243 125.481 93.1325 125.736Z" fill="white"/>
</svg>
